HIERARCHY
ROOT root
{
	OFFSET 0.000000 0.000000 0.000000
	CHANNELS 6 Xposition Yposition Zposition Zrotation Yrotation Xrotation
	JOINT lhip
	{
		OFFSET 0.058581 -0.082280 -0.017664
		CHANNELS 3 Zrotation Yrotation Xrotation
		JOINT lknee
		{
			OFFSET 0.043451 -0.386469 0.008037
			CHANNELS 3 Zrotation Yrotation Xrotation
			JOINT lankle
			{
				OFFSET -0.014790 -0.426874 -0.037428
				CHANNELS 3 Zrotation Yrotation Xrotation
				JOINT ltoe
				{
					OFFSET 0.041054 -0.060286 0.122042
					CHANNELS 3 Zrotation Yrotation Xrotation
					End Site
					{
						OFFSET 0.000000 0.000000 0.000000
					}
				}
			}
		}
	}
	JOINT rhip
	{
		OFFSET -0.060310 -0.090513 -0.013543
		CHANNELS 3 Zrotation Yrotation Xrotation
		JOINT rknee
		{
			OFFSET -0.043257 -0.383688 -0.004843
			CHANNELS 3 Zrotation Yrotation Xrotation
			JOINT rankle
			{
				OFFSET 0.019056 -0.420046 -0.034562
				CHANNELS 3 Zrotation Yrotation Xrotation
				JOINT rtoe
				{
					OFFSET -0.034840 -0.062106 0.130323
					CHANNELS 3 Zrotation Yrotation Xrotation
					End Site
					{
						OFFSET 0.000000 0.000000 0.000000
					}
				}
			}
		}
	}
	JOINT lowerback
	{
		OFFSET 0.004439 0.124404 -0.038385
		CHANNELS 3 Zrotation Yrotation Xrotation
		JOINT upperback
		{
			OFFSET 0.004488 0.137956 0.026820
			CHANNELS 3 Zrotation Yrotation Xrotation
			JOINT chest
			{
				OFFSET -0.002265 0.056032 0.002855
				CHANNELS 3 Zrotation Yrotation Xrotation
				JOINT lowerneck
				{
					OFFSET -0.013390 0.211636 -0.033468
					CHANNELS 3 Zrotation Yrotation Xrotation
					JOINT upperneck
					{
						OFFSET 0.010113 0.088937 0.050410
						CHANNELS 3 Zrotation Yrotation Xrotation
						End Site
						{
							OFFSET 0.000000 0.000000 0.000000
						}
					}
				}
				JOINT lclavicle
				{
					OFFSET 0.071702 0.114000 -0.018898
					CHANNELS 3 Zrotation Yrotation Xrotation
					JOINT lshoulder
					{
						OFFSET 0.122921 0.045205 -0.019046
						CHANNELS 3 Zrotation Yrotation Xrotation
						JOINT lelbow
						{
							OFFSET 0.255332 -0.015649 -0.022946
							CHANNELS 3 Zrotation Yrotation Xrotation
							JOINT lwrist
							{
								OFFSET 0.265709 0.012698 -0.007375
								CHANNELS 3 Zrotation Yrotation Xrotation
								End Site
								{
									OFFSET 0.000000 0.000000 0.000000
								}
							}
						}
					}
				}
				JOINT rclavicle
				{
					OFFSET -0.082954 0.112472 -0.023707
					CHANNELS 3 Zrotation Yrotation Xrotation
					JOINT rshoulder
					{
						OFFSET -0.113228 0.046853 -0.008472
						CHANNELS 3 Zrotation Yrotation Xrotation
						JOINT relbow
						{
							OFFSET -0.260127 -0.014369 -0.031269
							CHANNELS 3 Zrotation Yrotation Xrotation
							JOINT rwrist
							{
								OFFSET -0.269108 0.006794 -0.006027
								CHANNELS 3 Zrotation Yrotation Xrotation
								End Site
								{
									OFFSET 0.000000 0.000000 0.000000
								}
							}
						}
					}
				}
			}
		}
	}
}
MOTION
Frames: 14
Frame Time: 0.033333
0.625745 0.814024 0.914496 -81.344113 -10.859583 96.943209 22.802195 -1.708235 -0.838901 -5.776790 -19.119501 50.583337 -2.172777 15.420658 -14.598431 0.000000 -0.000000 0.000000 -21.320951 -11.320444 -40.948823 6.607582 -9.345008 52.529149 6.552667 -1.426562 -18.757506 0.000000 -0.000000 0.000000 0.370306 -7.930926 27.091900 1.508310 -2.488946 6.564443 -0.338092 -5.016331 3.115380 0.934584 -3.860916 0.637520 1.922626 -7.387243 -0.122909 -22.272520 6.054444 2.988093 -44.274635 1.218277 2.414027 -1.157919 -34.355063 9.639309 -2.156918 -1.556342 -14.001845 21.800062 0.679203 -1.773718 44.946731 0.801666 8.866452 1.508520 37.276765 4.584394 5.546682 0.994285 1.337498 
0.615457 0.830036 0.921643 -83.117690 -9.156739 97.594419 19.909294 -2.489428 -5.604354 -6.993901 -16.011980 58.970465 -0.817041 15.809367 -17.209511 0.000000 -0.000000 0.000000 -18.188469 -9.568652 -39.879703 6.919294 -9.284650 49.588637 5.776901 -1.872805 -18.006057 0.000000 -0.000000 0.000000 0.785305 -7.117847 27.092597 1.662647 -2.315830 4.972857 -0.385677 -4.540800 4.218944 0.858845 -3.837314 1.095413 2.035919 -6.411954 0.049011 -22.416475 6.489198 3.005391 -45.035817 1.691338 2.329886 -0.360696 -34.230995 9.150580 -3.550511 -1.104427 -13.977594 21.589362 0.600036 -1.744849 46.912289 1.862518 9.495152 0.392343 38.503786 4.819534 6.362900 1.036765 -0.698302 
0.605515 0.844094 0.928898 -84.973861 -7.519347 97.470328 16.589433 -2.984390 -9.793575 -7.572296 -12.622160 64.457635 -0.018904 15.515783 -19.207902 0.000000 -0.000000 0.000000 -15.253768 -7.253490 -37.836615 7.132200 -8.490466 46.361257 5.082386 -2.623269 -17.458184 0.000000 -0.000000 0.000000 1.123186 -6.228169 27.311390 1.725439 -2.353627 4.507549 -0.567663 -4.078274 4.926369 0.859823 -3.644903 1.151540 2.134112 -5.542666 0.455717 -22.416107 6.553933 2.850519 -45.882223 2.089759 2.293485 0.562781 -33.848794 8.056523 -3.963745 -0.556130 -12.649846 21.460669 0.531505 -1.977964 48.935917 2.586124 10.398676 -0.763171 39.898304 4.304595 6.452732 1.008656 -2.068508 
0.594943 0.856188 0.936241 -86.482904 -6.130090 97.090069 12.933348 -3.591888 -13.892591 -7.256689 -9.136280 66.608310 0.140402 14.670264 -21.055427 0.000000 -0.000000 0.000000 -12.505592 -4.883773 -35.529467 6.651637 -7.472437 43.513989 4.902983 -3.261391 -17.055474 0.000000 -0.000000 0.000000 1.217719 -5.225638 27.729809 1.839613 -2.485940 3.407716 -0.560035 -3.695772 5.782358 0.728663 -3.252110 1.957690 2.129779 -4.471253 0.622757 -22.531404 6.855486 2.587079 -46.613633 2.264341 2.597668 1.350368 -33.411948 7.381973 -4.609895 -0.682266 -11.311313 21.459976 0.079000 -2.310358 50.535835 2.679517 11.565679 -1.488462 41.016129 4.338578 7.173961 1.359791 -3.912078 
0.586074 0.865872 0.942883 -87.332226 -5.139178 96.885382 9.265094 -4.698729 -18.409410 -7.276589 -5.851127 65.655276 0.657613 14.123421 -22.066197 0.000000 -0.000000 0.000000 -10.539983 -3.242504 -33.274040 6.425994 -6.883612 40.508656 4.589581 -3.782517 -16.348555 0.000000 -0.000000 0.000000 1.428218 -4.339146 27.594217 1.982996 -2.991333 2.420868 -0.651956 -3.469651 6.571540 0.623093 -3.201522 2.597051 2.260350 -3.988415 1.324390 -22.601983 6.973532 2.689334 -47.357534 2.432660 3.032026 2.250690 -33.736347 6.596807 -5.090075 -0.633988 -10.792884 20.962475 -0.349827 -1.957508 52.379891 2.735178 12.620675 -2.452205 41.978509 4.863051 8.391417 1.244229 -5.757259 
0.575429 0.875590 0.949431 -88.630961 -3.918266 96.284518 6.096142 -4.047052 -21.139324 -7.963556 -4.409041 61.385353 1.438795 12.264163 -22.700327 0.000000 -0.000000 0.000000 -7.392178 -1.741056 -30.814743 5.654822 -4.805331 38.111707 4.166117 -4.836891 -16.170730 0.000000 -0.000000 0.000000 1.388558 -3.085446 27.529193 2.559636 -2.799237 1.791392 -1.002816 -3.073827 7.308186 1.775475 -1.614837 3.593307 1.102539 -5.206692 0.959287 -22.942371 8.498495 2.770977 -47.025422 0.294457 5.406288 2.065059 -33.129571 7.048134 -3.147733 -0.966178 -13.157709 22.085876 -2.545586 -2.053961 52.662001 3.581959 14.440020 -2.948776 41.946292 7.126773 7.987828 1.700494 -7.697280 
0.565558 0.883050 0.955616 -88.896428 -2.785331 95.321898 3.658177 -5.257049 -22.340099 -8.224931 -3.807577 54.603842 1.042569 10.960740 -23.053863 0.000000 -0.000000 0.000000 -5.105696 -0.397755 -27.599305 4.969686 -4.134495 35.474501 3.860151 -5.452092 -16.245530 0.000000 -0.000000 0.000000 1.612310 -2.430732 27.369166 2.783913 -3.059087 1.655536 -0.839734 -2.872290 7.707164 1.971637 -1.054354 3.986738 1.320706 -5.401006 1.627919 -22.704528 8.497455 2.795577 -48.226818 0.128553 5.858127 3.127795 -33.710206 6.537074 -3.271489 -1.532100 -13.331950 21.790915 -2.793383 -1.806667 53.692024 3.151530 14.789905 -3.507669 41.452274 7.696814 8.218795 2.167301 -7.893260 
0.555910 0.889698 0.961616 -88.959631 -1.933566 94.619074 1.357621 -6.330878 -22.562934 -8.259528 -4.987417 47.410959 1.630929 10.906269 -22.669756 0.000000 -0.000000 0.000000 -3.375828 0.511221 -24.887463 4.724272 -3.771978 33.171548 3.634910 -6.062228 -16.339838 0.000000 -0.000000 0.000000 1.424215 -1.952059 26.901824 2.976560 -3.239097 1.195334 -0.530350 -2.850632 7.984373 2.316186 -1.011848 4.961269 1.295071 -5.552579 2.736563 -22.547520 8.916397 2.817857 -49.085604 -0.136690 6.470064 3.473697 -34.083334 6.653565 -2.900117 -2.033026 -13.514124 21.735837 -3.333950 -1.698372 54.367322 2.441895 15.169232 -3.790126 40.419812 7.880898 8.084635 2.411712 -8.163082 
0.546084 0.895930 0.966285 -89.364184 -1.315545 93.939688 -0.251044 -6.830614 -21.649962 -8.329052 -6.012876 40.747201 1.851799 10.791795 -21.898712 0.000000 -0.000000 0.000000 -1.712595 1.064900 -22.412871 4.337181 -2.946691 31.326161 3.535565 -6.386369 -16.243274 0.000000 -0.000000 0.000000 0.953428 -1.263355 25.865888 3.043399 -3.365267 1.223713 -0.345549 -2.846578 8.298045 2.669805 -0.360083 5.465583 1.452842 -5.632080 3.320173 -22.569849 9.315916 2.576358 -49.339822 -0.369643 7.024877 3.809608 -34.640675 6.577569 -3.324581 -2.168883 -13.399767 21.994283 -4.076811 -1.948124 54.761342 1.608020 15.552975 -4.018385 39.306318 8.275474 8.957107 2.215993 -8.330160 
0.536232 0.901857 0.970127 -89.258255 -0.410641 93.074633 -0.851632 -6.974060 -20.078431 -7.916974 -6.865278 35.368971 1.107523 10.873118 -21.340434 0.000000 -0.000000 0.000000 0.010613 1.604330 -19.535634 4.141944 -2.776726 29.110160 3.170312 -6.900267 -16.611527 0.000000 -0.000000 0.000000 0.808095 -1.112041 24.870363 3.121181 -3.593613 1.393096 -0.206185 -2.853793 8.422383 2.971477 -0.095165 6.147856 1.598271 -5.586855 4.203201 -22.273148 9.448714 2.605898 -49.828978 -0.602996 7.277068 4.267491 -35.116250 6.141040 -3.222705 -2.261554 -13.818788 21.916092 -4.719618 -2.037707 55.287039 0.530860 15.743048 -4.028044 38.691739 8.865437 8.732087 2.371076 -8.626860 
0.527145 0.906783 0.973028 -88.906523 0.250358 92.298411 -1.409198 -6.758652 -18.251826 -7.371429 -8.150546 31.258911 1.933064 11.097423 -21.009806 0.000000 -0.000000 0.000000 1.314263 1.702952 -17.295837 4.011701 -2.635894 27.685703 2.888329 -7.220726 -16.801922 0.000000 -0.000000 0.000000 0.468255 -1.198589 23.663042 3.206262 -4.004826 1.630887 -0.027184 -3.058208 8.430808 3.186528 0.051292 7.009324 1.731069 -5.319124 5.026476 -22.180189 9.465872 2.869836 -50.280751 -0.804101 7.263637 4.902275 -35.197755 5.728658 -3.415272 -1.898505 -14.233028 21.829649 -5.091250 -1.646065 55.580271 -0.283024 15.501293 -4.168102 37.952616 9.170028 9.334911 2.030994 -8.696721 
0.517362 0.910906 0.975806 -88.858791 0.595541 91.393129 -1.691537 -6.634708 -15.631357 -7.083940 -8.832086 27.768447 1.837083 11.063971 -20.370332 0.000000 -0.000000 0.000000 2.308982 1.791899 -14.814691 4.024095 -2.007228 26.521458 2.640648 -7.719241 -16.741902 0.000000 -0.000000 0.000000 -0.108352 -1.183566 22.616216 3.195531 -4.363708 1.808667 0.067800 -3.303505 8.432718 3.342019 0.332208 7.718630 1.557145 -5.099109 5.830662 -22.315543 9.830457 2.850341 -50.206557 -0.934339 7.258201 5.088085 -35.512820 5.583161 -3.466331 -1.888637 -14.192717 21.999531 -5.779850 -1.859549 55.607126 -1.156461 15.627925 -4.044756 37.137117 9.594861 9.405210 2.057202 -8.677894 
0.508798 0.914059 0.977744 -88.098324 1.055291 90.867822 -1.844205 -5.902034 -13.216052 -6.530086 -10.176799 24.654529 3.016729 11.150483 -19.068116 0.000000 -0.000000 0.000000 3.316786 1.666913 -12.688189 3.899918 -1.810169 24.885962 2.259791 -8.275595 -16.875625 0.000000 -0.000000 0.000000 -0.341846 -1.640096 21.173340 3.234045 -4.823014 2.181439 0.140377 -3.596756 8.442090 3.225881 0.469214 7.927413 1.506696 -4.723877 6.337474 -22.271541 9.979793 2.871871 -50.367013 -1.454423 7.308850 5.248497 -35.545708 5.424741 -2.046334 -2.063265 -14.091557 22.026089 -6.382763 -2.037907 55.723335 -2.088044 15.611729 -3.867647 36.455338 9.727166 8.397682 2.391074 -8.639571 
0.500893 0.916443 0.979001 -87.706354 1.240101 90.497868 -2.074272 -5.175674 -10.755213 -5.639683 -11.348773 21.755980 4.212669 11.654399 -17.715239 0.000000 -0.000000 0.000000 4.033037 1.762114 -11.089109 3.596906 -1.595199 23.825627 2.080339 -8.745412 -17.118983 0.000000 -0.000000 0.000000 -0.811070 -1.977453 19.943685 3.116029 -5.028676 2.098527 0.212788 -3.777948 8.327657 3.173469 0.518619 8.233402 1.517500 -4.335258 6.910603 -22.156175 10.230590 2.990740 -50.477521 -1.794196 7.284114 5.335921 -35.711781 5.430935 -1.627843 -1.982719 -14.283601 22.109497 -6.976643 -1.949749 55.880498 -2.863263 15.399499 -3.856036 35.354460 9.623525 7.850063 2.340595 -8.627797 
